<?xml version="1.0" encoding="UTF-8"?>
<svg version="1.1" xmlns="http://www.w3.org/2000/svg" width="418" height="325">
<path d="M0 0 C1.65 0.33 3.3 0.66 5 1 C5.33 1.99 5.66 2.98 6 4 C6.66 4 7.32 4 8 4 C9.33619621 5.65770921 10.59462139 7.37852016 11.8125 9.125 C16.79130347 16.22863075 16.79130347 16.22863075 22.6875 22.5625 C24 24 24 24 24.9375 26.5625 C25.71574515 29.11397683 25.71574515 29.11397683 27.72265625 29.72265625 C31.20228955 31.67435452 33.13797312 34.7149041 35.5 37.875 C39.11502611 42.70508873 39.11502611 42.70508873 43.19140625 47.13671875 C45.25362682 49.26129588 46.23684227 51.24121327 47.4375 53.9375 C49.4692123 58.15437719 51.5073092 60.82482655 55 64 C61.14932196 70.53084924 66.96727812 76.93455624 71 85 C71.45503906 85.45503906 71.91007812 85.91007812 72.37890625 86.37890625 C74.05128751 88.05128751 75.41089906 89.78394831 76.8125 91.6875 C77.33585937 92.39003906 77.85921875 93.09257813 78.3984375 93.81640625 C79.43670677 95.23199776 80.46354388 96.65607401 81.4765625 98.08984375 C84.44128204 102.21984076 87.4400774 105.48114035 91.484375 108.578125 C93 110 93 110 93.9453125 112.0625 C95.31140437 114.57206136 96.44852321 114.88662039 99.125 115.75 C99.84945313 115.99234375 100.57390625 116.2346875 101.3203125 116.484375 C101.87460937 116.65453125 102.42890625 116.8246875 103 117 C103 117.66 103 118.32 103 119 C103.53625 119.226875 104.0725 119.45375 104.625 119.6875 C109.57069429 122.42064685 113.69340859 125.77981945 116 131 C116.50983042 133.67910887 116.76903405 136.27460179 117 139 C117.59167969 139.01417969 118.18335938 139.02835938 118.79296875 139.04296875 C122.88890199 139.29019474 125.37162259 139.54299825 128.75 142 C133.89686132 148.86248176 136.26109856 153.85497491 136.70703125 162.484375 C137.27584354 167.36857651 139.97960165 170.08164149 143.5 173.25 C145.83046071 175.01641098 145.83046071 175.01641098 148.03515625 175.83984375 C150.56548754 177.33389622 150.94228463 178.58368365 151.9375 181.3125 C153.62770181 185.47453846 155.62024539 187.97600903 159 191 C159.66 191.99 160.32 192.98 161 194 C161.99 194.33 162.98 194.66 164 195 C165.1875 198.5625 165.1875 198.5625 166 202 C166.66 202 167.32 202 168 202 C171.35334727 205.00941422 173.97985139 207.95970278 176 212 C176 212.99 176 213.98 176 215 C176.99 215.33 177.98 215.66 179 216 C179.33 216.66 179.66 217.32 180 218 C180.99 218.33 181.98 218.66 183 219 C183.33 218.01 183.66 217.02 184 216 C185.1725131 216.95117134 186.33787015 217.91117009 187.5 218.875 C188.1496875 219.40867188 188.799375 219.94234375 189.46875 220.4921875 C189.9740625 220.98976562 190.479375 221.48734375 191 222 C191 222.66 191 223.32 191 224 C191.598125 224.20625 192.19625 224.4125 192.8125 224.625 C195.91439253 226.57476102 196.69763021 228.61383854 198 232 C198.70564152 236.23384914 198.25143702 237.61544927 195.875 241.25 C190.71455094 246.18608171 185.90227039 246.21900053 179.07421875 246.16796875 C177 246 177 246 176 245 C169.86877383 244.51911952 166.23361023 245.95204685 161.125 249.1875 C158.40769235 250.22647057 155.94777993 250.02248517 153.07421875 249.9375 C150.72615209 249.9232569 150.72615209 249.9232569 147.5 251 C143.42065339 252.1655276 140.22030821 252.14808099 136 252 C136 252.66 136 253.32 136 254 C134.10614563 254.50744423 132.20981334 255.00564574 130.3125 255.5 C129.25675781 255.7784375 128.20101563 256.056875 127.11328125 256.34375 C124.28857328 256.9391715 121.87163292 257.12786492 119 257 C119 257.66 119 258.32 119 259 C117.64652311 259.46036629 116.292173 259.91816537 114.9375 260.375 C113.80634766 260.75785156 113.80634766 260.75785156 112.65234375 261.1484375 C108.31436466 262.54119073 103.92371943 263.74277486 99.53515625 264.96484375 C92.01578438 267.03990167 92.01578438 267.03990167 84.6875 269.6875 C70.39663266 274.7740799 52.81204943 271.8730307 37.97900391 270.77319336 C35.08154951 270.55929232 32.18346085 270.3563176 29.28515625 270.15429688 C27.44266222 270.02147149 25.60021234 269.8880318 23.7578125 269.75390625 C22.89133087 269.6934462 22.02484924 269.63298615 21.1321106 269.57069397 C15.11518615 269.11518615 15.11518615 269.11518615 14 268 C12.2592243 267.79371817 10.51080914 267.65149646 8.76171875 267.53515625 C7.64385986 267.45837646 6.52600098 267.38159668 5.37426758 267.30249023 C4.15763428 267.22329346 2.94100098 267.14409668 1.6875 267.0625 C0.44830811 266.97750244 -0.79088379 266.89250488 -2.06762695 266.80493164 C-6.04480193 266.53224112 -10.02232332 266.26524222 -14 266 C-19.22955149 265.65127938 -24.45861772 265.29615489 -29.6875 264.9375 C-30.9041333 264.85830322 -32.1207666 264.77910645 -33.37426758 264.69750977 C-34.49212646 264.62072998 -35.60998535 264.5439502 -36.76171875 264.46484375 C-37.75131592 264.399021 -38.74091309 264.33319824 -39.76049805 264.26538086 C-42 264 -42 264 -43 263 C-44.35630416 262.8248793 -45.72080679 262.71246854 -47.08569336 262.62695312 C-47.95427475 262.57019409 -48.82285614 262.51343506 -49.71775818 262.45495605 C-50.66554642 262.39763306 -51.61333466 262.34031006 -52.58984375 262.28125 C-53.56353409 262.21844849 -54.53722443 262.15564697 -55.54042053 262.09094238 C-58.67251965 261.88959304 -61.80496731 261.69447777 -64.9375 261.5 C-68.03782571 261.3045557 -71.13805592 261.10776159 -74.23817444 260.90905762 C-76.16922293 260.78559975 -78.10040068 260.66414113 -80.03172302 260.54504395 C-97.56442514 259.43557486 -97.56442514 259.43557486 -99 258 C-100.71009856 257.79385893 -102.42794348 257.651554 -104.14648438 257.53515625 C-105.24432251 257.45837646 -106.34216064 257.38159668 -107.4732666 257.30249023 C-108.66802612 257.22329346 -109.86278564 257.14409668 -111.09375 257.0625 C-112.31074585 256.97750244 -113.5277417 256.89250488 -114.78161621 256.80493164 C-118.68745599 256.53224776 -122.59366145 256.26543745 -126.5 256 C-131.63579216 255.65102062 -136.77112501 255.29614797 -141.90625 254.9375 C-143.69838928 254.81870483 -143.69838928 254.81870483 -145.5267334 254.69750977 C-146.62457153 254.62072998 -147.72240967 254.5439502 -148.85351562 254.46484375 C-149.8253479 254.399021 -150.79718018 254.33319824 -151.79846191 254.26538086 C-154 254 -154 254 -155 253 C-156.33658897 252.8353468 -157.68102199 252.73350616 -159.02563477 252.65869141 C-159.88065079 252.60838776 -160.73566681 252.55808411 -161.61659241 252.5062561 C-162.54878098 252.45520721 -163.48096954 252.40415833 -164.44140625 252.3515625 C-166.40692869 252.2322254 -168.37242265 252.11241839 -170.33789062 251.9921875 C-173.44252747 251.80715751 -176.54724086 251.62584873 -179.65258789 251.453125 C-182.64547469 251.28460606 -185.63708248 251.10039342 -188.62890625 250.9140625 C-189.5469252 250.86706207 -190.46494415 250.82006165 -191.41078186 250.77163696 C-197.73997728 250.36314236 -204.30966947 249.69033053 -209 245 C-209.57622658 241.54264053 -209.0473308 240.08414364 -207.3125 237 C-205.04859106 234.06303705 -202.65096625 231.58784801 -200 229 C-198.99546941 227.75363797 -197.99563529 226.5034793 -197 225.25 C-195.01979393 222.90743663 -194.18039277 222.06969721 -191.25 220.9375 C-189 221 -189 221 -187 223 C-186.54625 222.505 -186.0925 222.01 -185.625 221.5 C-184 220 -184 220 -182 220 C-181.731875 219.195625 -181.46375 218.39125 -181.1875 217.5625 C-180.795625 216.716875 -180.40375 215.87125 -180 215 C-179.01 214.67 -178.02 214.34 -177 214 C-176.67 213.34 -176.34 212.68 -176 212 C-175 210 -175 210 -172 209 C-171.57654297 207.92105469 -171.57654297 207.92105469 -171.14453125 206.8203125 C-168.72626057 200.86129738 -163.19488365 195.72802311 -158 192 C-153.7155971 190.24005965 -149.56836104 189.62221405 -145 189 C-142.72265902 188.46445509 -140.45120546 187.90303186 -138.1875 187.3125 C-136.69283203 186.93544922 -136.69283203 186.93544922 -135.16796875 186.55078125 C-134.45253906 186.36902344 -133.73710937 186.18726563 -133 186 C-134.05960937 186.01160156 -135.11921875 186.02320313 -136.2109375 186.03515625 C-137.59895658 186.04453476 -138.98697755 186.05363489 -140.375 186.0625 C-141.07367188 186.07087891 -141.77234375 186.07925781 -142.4921875 186.08789062 C-147.7734375 186.11328125 -147.7734375 186.11328125 -150 185 C-150.47357886 181.84280757 -150.41726456 179.70338883 -148.76953125 176.92578125 C-146.37080497 173.72155676 -143.83925309 170.81647834 -141 168 C-138.49722274 165.06991931 -136.13820578 162.20730867 -134 159 C-133.34 159 -132.68 159 -132 159 C-131.9071875 158.195625 -131.9071875 158.195625 -131.8125 157.375 C-130.64489826 153.9620103 -128.36925941 151.64263549 -126 149 C-120.94303748 143.3526633 -120.94303748 143.3526633 -116.375 137.3125 C-114.2096086 134.19662326 -111.84248839 131.53519234 -109 129 C-108.34 129 -107.68 129 -107 129 C-106.7525 128.401875 -106.505 127.80375 -106.25 127.1875 C-105 125 -105 125 -103 123.5625 C-100.54164372 121.64190915 -100.12598693 119.85250021 -99 117 C-98.01 116.67 -97.02 116.34 -96 116 C-95.71125 115.278125 -95.4225 114.55625 -95.125 113.8125 C-93.64905025 110.12262563 -91.70713754 107.91017286 -89 105 C-88.34 105 -87.68 105 -87 105 C-86.89429687 104.4225 -86.78859375 103.845 -86.6796875 103.25 C-85.89992585 100.66872007 -84.78571039 99.11513363 -83.125 97 C-82.35542969 96.01 -82.35542969 96.01 -81.5703125 95 C-80.52233345 93.66526052 -79.45434404 92.34599608 -78.3671875 91.04296875 C-76.423513 88.13856371 -76.15933826 85.32662161 -75.625 81.92578125 C-75.41875 81.29027344 -75.2125 80.65476562 -75 80 C-74.01 79.67 -73.02 79.34 -72 79 C-71.71125 78.236875 -71.4225 77.47375 -71.125 76.6875 C-69.68252798 73.24159461 -68.09611323 72.06407549 -65 70 C-63.29494696 69.32441295 -61.58953407 68.64962548 -59.87890625 67.98828125 C-57.56380396 66.77056633 -55.99413324 65.19954159 -54.125 63.375 C-50.01931515 59.55107784 -46.50891071 58.91073524 -41 59 C-41.48644595 56.996009 -41.97704428 55.06260651 -42.6875 53.125 C-43.15426447 49.95100162 -42.34028415 47.87203747 -41 45 C-39.67696283 44.6278958 -38.34262065 44.29369827 -37 44 C-36.31653318 42.34015202 -35.65411685 40.67163195 -35 39 C-32.48373045 35.6295839 -29.62815915 32.61472812 -26.625 29.67578125 C-23.32578353 26.31274066 -20.41774054 22.70409821 -17.48632812 19.02148438 C-16.3666298 17.64536659 -15.18762184 16.31794494 -14 15 C-13.34 15 -12.68 15 -12 15 C-11.731875 14.195625 -11.46375 13.39125 -11.1875 12.5625 C-10.795625 11.716875 -10.40375 10.87125 -10 10 C-9.01 9.67 -8.02 9.34 -7 9 C-6.67 8.34 -6.34 7.68 -6 7 C-5 5 -5 5 -2 4 C-0.79117904 1.99983534 -0.79117904 1.99983534 0 0 Z M37 57 C37 57.99 37 58.98 37 60 C37.99 60 38.98 60 40 60 C39.67 59.01 39.34 58.02 39 57 C38.34 57 37.68 57 37 57 Z " fill="#F7FAFC" transform="translate(214,22)"/>
<path d="M0 0 C8.93602438 -0.3258599 17.86997592 -0.5738419 26.81066608 -0.72537041 C30.96357274 -0.79814141 35.11238836 -0.89661448 39.26293945 -1.05615234 C43.27689649 -1.20945584 47.28694965 -1.29220109 51.30360985 -1.3282814 C52.8274504 -1.35395029 54.35110071 -1.40408978 55.87325478 -1.48022079 C67.45220905 -2.03576029 67.45220905 -2.03576029 71.71230125 1.36817932 C74.93026056 4.7074029 77.48810523 8.42054625 79.93873405 12.34430981 C81.34536739 14.53881065 82.96001738 16.52297374 84.63671875 18.515625 C85.40218018 19.45426392 85.40218018 19.45426392 86.18310547 20.41186523 C86.67955566 21.01844971 87.17600586 21.62503418 87.6875 22.25 C88.78802088 23.60004814 89.88828198 24.95030808 90.98828125 26.30078125 C91.50471191 26.9345166 92.02114258 27.56825195 92.55322266 28.22119141 C98.12811103 35.07550067 103.59688696 42.00972251 109 49 C106.25632044 50.50026324 103.92250868 51.33438319 100.83203125 51.78125 C99.62691895 51.95950317 99.62691895 51.95950317 98.39746094 52.14135742 C97.54442383 52.25970947 96.69138672 52.37806152 95.8125 52.5 C94.9349707 52.62673096 94.05744141 52.75346191 93.15332031 52.8840332 C84.7866814 54.07334927 76.39953598 55.07518062 68 56 C72.08172173 57.08064299 75.95892374 57.08439799 80.14529419 57.05912781 C84.09746047 57.03631964 88.047338 57.10270244 91.99902344 57.16088867 C94.07219789 57.17853753 96.14570264 57.17324303 98.21875 57.14428711 C116.41566715 56.9252394 116.41566715 56.9252394 121.63574219 61.93798828 C124.11045864 64.8441568 126.09802126 67.98056394 127.98822021 71.28994751 C129.35199794 73.59492684 131.00098154 75.57113542 132.75 77.59375 C133.29043945 78.2444043 133.83087891 78.89505859 134.38769531 79.56542969 C134.91975586 80.20383789 135.45181641 80.84224609 136 81.5 C140.45350113 86.88718024 144.89209545 92.28504712 149.25 97.75 C149.70375 98.31009766 150.1575 98.87019531 150.625 99.44726562 C153.05589522 102.51964708 154.63096854 105.34873611 156 109 C98.40459822 126.67417093 98.40459822 126.67417093 79.04919434 132.39398193 C76.74757388 133.07465119 74.44656573 133.75737298 72.14550781 134.43994141 C67.77550844 135.73489524 63.40300871 137.02112236 59.02890015 138.30212402 C57.31716879 138.80438509 55.60607374 139.30882042 53.8956604 139.81555176 C51.51432634 140.5202751 49.13060552 141.21627304 46.74609375 141.91015625 C45.68106125 142.22814934 45.68106125 142.22814934 44.59451294 142.55256653 C40.97184969 143.59636569 37.77477732 144.24458107 34 144 C29.1953125 123.58007813 29.1953125 123.58007813 28.66888428 121.34248352 C28.31508416 119.83901699 27.96111945 118.33558918 27.60699463 116.8321991 C26.70778287 113.01377633 25.81148183 109.1947127 24.92089844 105.37426758 C23.29487236 98.40891124 21.6533747 91.45845674 19.75 84.5625 C18 78.21538462 18 78.21538462 18 76 C17.07034424 75.98541748 16.14068848 75.97083496 15.18286133 75.95581055 C-13.55682499 75.4826562 -42.26545053 74.41634496 -70.98389435 73.2617979 C-75.14419145 73.09461969 -79.30450915 72.92796128 -83.46484375 72.76171875 C-84.2861805 72.72887346 -85.10751724 72.69602818 -85.95374298 72.66218758 C-97.59419847 72.19809352 -109.2353766 71.77370094 -120.87890625 71.39453125 C-121.57787899 71.37171396 -122.27685173 71.34889668 -122.99700546 71.32538795 C-130.17225793 71.09176349 -137.34773029 70.86595573 -144.5234375 70.64672852 C-145.69108139 70.60992477 -146.85872528 70.57312103 -148.06175232 70.53520203 C-150.19388239 70.46801458 -152.32609043 70.40322766 -154.45838928 70.34162903 C-161.32959919 70.12287131 -168.15444913 69.62864756 -175 69 C-175.33 68.01 -175.66 67.02 -176 66 C-169.96595718 63.8916652 -163.8789039 62.5527596 -157.62109375 61.28564453 C-155.68864204 60.8880927 -153.76211074 60.46209155 -151.8359375 60.03515625 C-139.57297684 57.46572788 -127.47519458 57.71088995 -115 58 C-113.7228009 58.02652649 -112.44560181 58.05305298 -111.12969971 58.0803833 C-101.54800345 58.28041119 -91.96814925 58.53646573 -82.388237 58.80771637 C-79.97412253 58.87572904 -77.55997503 58.94242645 -75.14581299 59.00872803 C-45.09077906 59.83516785 -15.04442745 60.84970861 15 62 C14.85632492 61.42974091 14.71264984 60.85948181 14.56462097 60.27194214 C13.05274348 54.26911087 11.54434118 48.26541365 10.0378418 42.26123047 C9.47718675 40.02859035 8.91568277 37.79616321 8.35327148 35.56396484 C7.53919949 32.33227993 6.72831145 29.09980929 5.91796875 25.8671875 C5.67096725 24.88950409 5.42396576 23.91182068 5.16947937 22.9045105 C3.26953575 15.30593178 1.60451685 7.66603971 0 0 Z " fill="#1B68B3" transform="translate(245,147)"/>
<path d="M0 0 C0 0.33 0 0.66 0 1 C-1.65 1.33 -3.3 1.66 -5 2 C-5 2.99 -5 3.98 -5 5 C-4.10808456 4.98599655 -4.10808456 4.98599655 -3.19815063 4.97171021 C8.0146854 4.881495 19.21117553 5.38793202 30.4140625 5.8046875 C32.7298967 5.88918732 35.04573855 5.97347746 37.36158752 6.05757141 C43.51606916 6.2815381 49.67045566 6.50802133 55.82482529 6.73504257 C65.93570192 7.10741816 76.04674334 7.47531505 86.15775871 7.84390068 C88.65395379 7.93493895 91.15014545 8.02607078 93.64633369 8.11729622 C108.36909213 8.65532049 123.09203397 9.18378332 137.81640625 9.67578125 C138.86409306 9.71093338 138.86409306 9.71093338 139.93294525 9.74679565 C146.60635011 9.97070141 153.27985923 10.19057428 159.95361328 10.40380859 C169.32823226 10.71041322 178.66591158 11.02621469 188 12 C190.63844417 20.29262103 192.75297558 28.70555243 194.85180664 37.14648438 C195.42961998 39.46833538 196.01238132 41.7889026 196.59570312 44.109375 C198.57636481 52.02238503 200.48457402 59.95021957 202.28515625 67.90625 C202.4583287 68.65966675 202.63150116 69.4130835 202.80992126 70.18933105 C203.56492056 73.57615501 204 76.50897698 204 80 C204.99 80.33 205.98 80.66 207 81 C192.70889658 80.3978687 178.4944298 79.35036953 164.25 78.0625 C161.20498224 77.79111028 158.15986052 77.52090882 155.11473083 77.2507782 C153.1312615 77.07472907 151.14783172 76.89823365 149.16444397 76.7212677 C140.65878281 75.96375844 132.14973072 75.25400825 123.63574219 74.59594727 C122.8059082 74.52947998 121.97607422 74.4630127 121.12109375 74.39453125 C120.4345874 74.34143799 119.74808105 74.28834473 119.04077148 74.23364258 C117 74 117 74 114.7898407 73.52294922 C111.63079196 72.9307928 108.52632637 72.65116507 105.32177734 72.39916992 C104.66749252 72.3468455 104.0132077 72.29452108 103.33909607 72.24061108 C101.17158111 72.06786752 99.00376516 71.89923873 96.8359375 71.73046875 C95.30088764 71.60861174 93.76586411 71.48642274 92.23086548 71.36392212 C88.97140179 71.10414726 85.71182518 70.84586306 82.45214844 70.58877563 C73.97519739 69.91966302 65.49921225 69.23852135 57.0234375 68.5546875 C56.18802177 68.48732454 55.35260605 68.41996159 54.49187469 68.35055733 C40.98609943 67.25975198 27.48883727 66.09762185 14 64.8125 C12.74598892 64.69305527 12.74598892 64.69305527 11.46664429 64.57119751 C8.25268797 64.26447139 5.03879777 63.95707356 1.82505798 63.64808655 C-5.82484488 62.91481431 -13.47926086 62.23553137 -21.13494873 61.56573486 C-23.25494025 61.38004174 -25.37480127 61.1929249 -27.49462891 61.00537109 C-33.61085569 60.46527514 -39.72767666 59.93742687 -45.84765625 59.44140625 C-47.39296021 59.31209717 -47.39296021 59.31209717 -48.96948242 59.18017578 C-50.8323686 59.02458307 -52.69579463 58.87525187 -54.55981445 58.73388672 C-55.36249756 58.66572754 -56.16518066 58.59756836 -56.9921875 58.52734375 C-57.67651855 58.47312256 -58.36084961 58.41890137 -59.06591797 58.36303711 C-61.3027236 57.94317723 -63.01628623 57.09649599 -65 56 C-63.85724609 54.78376953 -63.85724609 54.78376953 -62.69140625 53.54296875 C-51.27919626 42.05941332 -51.27919626 42.05941332 -42.44140625 28.74609375 C-41 26 -41 26 -38 25 C-37.67 24.34 -37.34 23.68 -37 23 C-36 21 -36 21 -33 20 C-32.57654297 18.92105469 -32.57654297 18.92105469 -32.14453125 17.8203125 C-29.72955133 11.86940635 -24.19807967 6.71312305 -19 3 C-12.74284651 0.39578539 -6.72069619 -0.12037068 0 0 Z " fill="#669BD0" transform="translate(75,211)"/>
<path d="M0 0 C44.88 0 89.76 0 136 0 C140.49961764 15.74866174 140.49961764 15.74866174 142.03515625 21.9453125 C142.28234657 22.93831863 142.28234657 22.93831863 142.53453064 23.9513855 C143.04613446 26.0086992 143.55442898 28.06681137 144.0625 30.125 C144.5733018 32.18328083 145.08478062 34.24139268 145.59628296 36.29949951 C145.92752376 37.63458401 146.25780312 38.96990745 146.58706665 40.30548096 C147.3459444 43.38240372 148.11795674 46.45480487 148.91357422 49.52246094 C149.18830566 50.5849707 149.46303711 51.64748047 149.74609375 52.7421875 C149.98900146 53.66628418 150.23190918 54.59038086 150.48217773 55.54248047 C151 58 151 58 151 62 C130.40684701 62.13823287 109.86441987 61.79160616 89.28308105 61.13116455 C85.69533446 61.01701174 82.10742699 60.90817406 78.51953125 60.79882812 C71.43422215 60.58202214 64.34910822 60.35935009 57.26403809 60.1348877 C50.74849365 59.92852953 44.23285455 59.72519514 37.71722031 59.52169609 C35.72489784 59.4594212 33.73258124 59.39695831 31.74026489 59.33448792 C29.31328988 59.25848626 26.88630364 59.18284206 24.45930481 59.10760498 C22.14374676 59.03557734 19.82822523 58.96236637 17.51274109 58.88800049 C15.86880119 58.83624664 15.86880119 58.83624664 14.19165039 58.78344727 C13.22997452 58.75267593 12.26829865 58.7219046 11.27748108 58.69020081 C-0.22478105 58.42018753 -10.75075628 60.21054784 -21.91015625 62.90625 C-26.07745189 63.88950132 -29.73095705 64.23684011 -34 64 C-33.67 63.34 -33.34 62.68 -33 62 C-30.4375 61.375 -30.4375 61.375 -28 61 C-29.05960938 61.01160156 -30.11921875 61.02320313 -31.2109375 61.03515625 C-32.59895658 61.04453476 -33.98697755 61.05363489 -35.375 61.0625 C-36.07367188 61.07087891 -36.77234375 61.07925781 -37.4921875 61.08789062 C-42.7734375 61.11328125 -42.7734375 61.11328125 -45 60 C-45.47357886 56.84280757 -45.41726456 54.70338883 -43.76953125 51.92578125 C-41.37080497 48.72155676 -38.83925309 45.81647834 -36 43 C-33.49722274 40.06991931 -31.13820578 37.20730867 -29 34 C-28.34 34 -27.68 34 -27 34 C-26.938125 33.46375 -26.87625 32.9275 -26.8125 32.375 C-25.64489826 28.9620103 -23.36925941 26.64263549 -21 24 C-15.94303748 18.3526633 -15.94303748 18.3526633 -11.375 12.3125 C-9.2096086 9.19662326 -6.84248839 6.53519234 -4 4 C-3.34 4 -2.68 4 -2 4 C-1.34 2.68 -0.68 1.36 0 0 Z " fill="#669BD0" transform="translate(109,147)"/>
<path d="M0 0 C44.65690555 -1.33389428 44.65690555 -1.33389428 54.15429688 6.94140625 C57.06263376 10.04808156 59.18659014 13.49295526 61.37304688 17.1328125 C62.63731429 18.75866039 63.92770713 20.36466187 65.24804688 21.9453125 C65.87453125 22.73550781 66.50101563 23.52570313 67.14648438 24.33984375 C70.03065978 27.9577129 72.95230399 31.54444748 75.87304688 35.1328125 C76.99293891 36.51163724 78.1127325 37.89054193 79.23242188 39.26953125 C81.13322551 41.60999605 83.03887887 43.94626162 84.95117188 46.27734375 C85.66789063 47.15777344 86.38460937 48.03820312 87.12304688 48.9453125 C87.73664063 49.69425781 88.35023438 50.44320312 88.98242188 51.21484375 C90.37304688 53.1328125 90.37304688 53.1328125 91.37304688 56.1328125 C30.32304687 56.1328125 -30.72695313 56.1328125 -93.62695312 56.1328125 C-91.62695312 52.1328125 -91.62695312 52.1328125 -89.62695312 49.6953125 C-87.56513674 47.3146671 -87.56513674 47.3146671 -86.75195312 44.8203125 C-84.76057569 40.06313307 -81.28561704 36.12161815 -77.99804688 32.1796875 C-76.05123466 29.27333536 -75.78679418 26.46263422 -75.25195312 23.05859375 C-75.04570312 22.42308594 -74.83945313 21.78757812 -74.62695312 21.1328125 C-73.63695312 20.8028125 -72.64695313 20.4728125 -71.62695312 20.1328125 C-71.33820313 19.3696875 -71.04945313 18.6065625 -70.75195312 17.8203125 C-69.3094811 14.37440711 -67.72306636 13.19688799 -64.62695312 11.1328125 C-63.49257812 10.6790625 -62.35820312 10.2253125 -61.18945312 9.7578125 C-57.83791546 8.22904094 -57.1510812 7.73652794 -55.01977539 5.09521484 C-51.09862763 1.0717842 -47.17295338 1.18571562 -41.77929688 1.109375 C-40.82291321 1.07320068 -39.86652954 1.03702637 -38.88116455 0.99975586 C-35.7757374 0.89008686 -32.67111678 0.82250298 -29.56445312 0.7578125 C-27.41832345 0.69495438 -25.2722448 0.63032982 -23.1262207 0.56396484 C-17.88786287 0.41036217 -12.64948922 0.29400056 -7.40991211 0.19140625 C-4.9394033 0.13939098 -2.46991734 0.07443961 0 0 Z " fill="#ED3E59" transform="translate(213.626953125,80.8671875)"/>
<path d="M0 0 C8.93602438 -0.3258599 17.86997592 -0.5738419 26.81066608 -0.72537041 C30.96357274 -0.79814141 35.11238836 -0.89661448 39.26293945 -1.05615234 C43.27689649 -1.20945584 47.28694965 -1.29220109 51.30360985 -1.3282814 C52.8274504 -1.35395029 54.35110071 -1.40408978 55.87325478 -1.48022079 C67.45220905 -2.03576029 67.45220905 -2.03576029 71.71230125 1.36817932 C74.93026056 4.7074029 77.48810523 8.42054625 79.93873405 12.34430981 C81.34536739 14.53881065 82.96001738 16.52297374 84.63671875 18.515625 C85.14702637 19.14138428 85.65733398 19.76714355 86.18310547 20.41186523 C86.67955566 21.01844971 87.17600586 21.62503418 87.6875 22.25 C88.78802088 23.60004814 89.88828198 24.95030808 90.98828125 26.30078125 C91.76292725 27.25138428 91.76292725 27.25138428 92.55322266 28.22119141 C98.12811103 35.07550067 103.59688696 42.00972251 109 49 C106.25632044 50.50026324 103.92250868 51.33438319 100.83203125 51.78125 C99.62691895 51.95950317 99.62691895 51.95950317 98.39746094 52.14135742 C97.54442383 52.25970947 96.69138672 52.37806152 95.8125 52.5 C94.49620605 52.69009644 94.49620605 52.69009644 93.15332031 52.8840332 C84.7866814 54.07334927 76.39953598 55.07518062 68 56 C69.65 56.33 71.3 56.66 73 57 C73 57.33 73 57.66 73 58 C71.98550781 57.94199219 70.97101563 57.88398438 69.92578125 57.82421875 C56.20795309 57.32747721 42.98495864 59.14966299 29.46411133 61.22143555 C19.87535861 62.66149216 10.70440354 63.32285235 1 63 C1 62.67 1 62.34 1 62 C5.62 62 10.24 62 15 62 C14.65219482 60.61925293 14.30438965 59.23850586 13.94604492 57.81591797 C12.64083999 52.63164136 11.33888239 47.44655357 10.0378418 42.26123047 C9.47718675 40.02859035 8.91568277 37.79616321 8.35327148 35.56396484 C7.53919949 32.33227993 6.72831145 29.09980929 5.91796875 25.8671875 C5.67096725 24.88950409 5.42396576 23.91182068 5.16947937 22.9045105 C3.26953575 15.30593178 1.60451685 7.66603971 0 0 Z " fill="#1C69B3" transform="translate(245,147)"/>
<path d="M0 0 C-3.43051858 2.28701239 -5.63653521 2.58345803 -9.6953125 3.18359375 C-10.69387772 3.33514671 -10.69387772 3.33514671 -11.71261597 3.48976135 C-13.8490851 3.81276229 -15.98688454 4.1256009 -18.125 4.4375 C-20.89893168 4.84959545 -23.6722554 5.2656557 -26.4453125 5.68359375 C-27.14519287 5.78906021 -27.84507324 5.89452667 -28.56616211 6.00318909 C-38.85008059 7.56808531 -49.08593615 9.31202446 -59.234375 11.60546875 C-104.6329835 21.48822111 -153.13172592 15.65787932 -199.22757721 13.69257545 C-210.76467751 13.20164212 -222.30223876 12.76391328 -233.84375 12.390625 C-234.54377073 12.36792416 -235.24379147 12.34522331 -235.96502495 12.32183456 C-241.92884659 12.12910701 -247.89281009 11.94127538 -253.85696411 11.75909424 C-257.37477039 11.65158336 -260.89245977 11.54072201 -264.41015625 11.4296875 C-265.91896362 11.386091 -265.91896362 11.386091 -267.45825195 11.34161377 C-274.32950967 11.12290115 -281.15440381 10.62865173 -288 10 C-288.33 9.01 -288.66 8.02 -289 7 C-282.96595718 4.8916652 -276.8789039 3.5527596 -270.62109375 2.28564453 C-268.68864204 1.8880927 -266.76211074 1.46209155 -264.8359375 1.03515625 C-252.57151701 -1.53486224 -240.47653776 -1.28552307 -228 -1 C-226.68980896 -0.97347351 -225.37961792 -0.94694702 -224.02972412 -0.9196167 C-214.20279203 -0.72046038 -204.3776985 -0.46585178 -194.5525856 -0.19228363 C-192.09753348 -0.12423873 -189.64244656 -0.05759689 -187.18734741 0.00872803 C-166.27841239 0.57580923 -145.38074628 1.23084776 -124.49462891 2.39013672 C-110.21315371 3.18022163 -96.69244525 3.16136111 -82.56820679 0.80499268 C-55.13957656 -3.66359374 -27.60326229 -1.87149 0 0 Z " fill="#104F8C" transform="translate(358,206)"/>
<path d="M0 0 C29.31960659 -0.68018623 29.31960659 -0.68018623 37.86328125 6.80859375 C40.70791387 9.92116148 42.83350304 13.39337037 45 17 C46.26426741 18.62584789 47.55466025 20.23184937 48.875 21.8125 C49.50148438 22.60269531 50.12796875 23.39289063 50.7734375 24.20703125 C53.65761341 27.82490103 56.57930331 31.41159671 59.5 35 C60.61857308 36.37753637 61.73706425 37.75513926 62.85546875 39.1328125 C64.76778404 41.48758505 66.68618498 43.83700217 68.61328125 46.1796875 C69.70189453 47.51386719 69.70189453 47.51386719 70.8125 48.875 C71.43769531 49.63554687 72.06289063 50.39609375 72.70703125 51.1796875 C74 53 74 53 74 55 C53.54 55 33.08 55 12 55 C9.69 45.1 7.38 35.2 5 25 C2.68790056 15.44934756 2.68790056 15.44934756 0.34790039 5.90576172 C0 4 0 4 0 0 Z " fill="#B12A40" transform="translate(230,81)"/>
<path d="M0 0 C2.86263798 0.3386603 3.90676286 0.90319127 5.9375 3.01171875 C6.9584375 4.33623047 6.9584375 4.33623047 8 5.6875 C8.78375 6.68136719 9.5675 7.67523438 10.375 8.69921875 C11.00728516 9.50238525 11.00728516 9.50238525 11.65234375 10.32177734 C14.0266093 13.27842614 16.51839978 16.13343913 19 19 C23.30982762 23.99958957 27.53394909 29.05664299 31.6875 34.1875 C33.43632465 36.31444889 35.20388293 38.41360138 37 40.5 C37.50845459 41.09224365 38.01690918 41.6844873 38.54077148 42.29467773 C39.53873253 43.45402891 40.54072213 44.60992711 41.54711914 45.76196289 C45 49.77888232 45 49.77888232 45 52 C36.72282673 52.04684922 28.44571112 52.08213095 20.168437 52.10362434 C16.32277346 52.11395283 12.47720223 52.12790521 8.6315918 52.15087891 C-24.03085376 52.34106813 -24.03085376 52.34106813 -40 50 C-36.7693237 41.75927464 -31.99712125 34.91008175 -25.66796875 28.71875 C-22.3531735 25.34086202 -19.43104488 21.7208119 -16.48632812 18.02148438 C-15.3666298 16.64536659 -14.18762184 15.31794494 -13 14 C-12.34 14 -11.68 14 -11 14 C-10.731875 13.195625 -10.46375 12.39125 -10.1875 11.5625 C-9.795625 10.716875 -9.40375 9.87125 -9 9 C-8.01 8.67 -7.02 8.34 -6 8 C-5.67 7.34 -5.34 6.68 -5 6 C-4 4 -4 4 -1 3 C-0.67 2.01 -0.34 1.02 0 0 Z " fill="#669BD1" transform="translate(213,23)"/>
<path d="M0 0 C2.475 0.495 2.475 0.495 5 1 C5.495 2.485 5.495 2.485 6 4 C6.66 4 7.32 4 8 4 C9.33619621 5.65770921 10.59462139 7.37852016 11.8125 9.125 C16.79130347 16.22863075 16.79130347 16.22863075 22.6875 22.5625 C24 24 24 24 24.9375 26.5625 C25.71574515 29.11397683 25.71574515 29.11397683 27.72265625 29.72265625 C31.20228955 31.67435452 33.13797312 34.7149041 35.5 37.875 C39.11502611 42.70508873 39.11502611 42.70508873 43.19140625 47.13671875 C45.25362682 49.26129588 46.23684227 51.24121327 47.4375 53.9375 C49.4692123 58.15437719 51.5073092 60.82482655 55 64 C61.14932196 70.53084924 66.96727812 76.93455624 71 85 C71.45503906 85.45503906 71.91007812 85.91007812 72.37890625 86.37890625 C74.05128751 88.05128751 75.41089906 89.78394831 76.8125 91.6875 C77.58980469 92.73550781 77.58980469 92.73550781 78.3828125 93.8046875 C79.4609375 95.26822917 80.5390625 96.73177083 81.6171875 98.1953125 C82.13539063 98.89398438 82.65359375 99.59265625 83.1875 100.3125 C83.65542969 100.94800781 84.12335938 101.58351563 84.60546875 102.23828125 C85.95109945 104.05557281 85.95109945 104.05557281 87.73828125 105.48046875 C88.15464844 105.98191406 88.57101562 106.48335938 89 107 C88.57885742 109.0949707 88.57885742 109.0949707 88 111 C74.07977261 94.15136052 74.07977261 94.15136052 68.140625 86.67578125 C64.61615767 82.27019708 61.04586639 77.90170454 57.47827148 73.53100586 C56.94274658 72.87366455 56.40722168 72.21632324 55.85546875 71.5390625 C55.37746826 70.95334473 54.89946777 70.36762695 54.40698242 69.76416016 C53 68 53 68 51.6315918 65.85791016 C49.52462494 63.45868559 48.16400437 63.24981765 45.0390625 62.734375 C44.02497314 62.56639404 43.01088379 62.39841309 41.96606445 62.2253418 C40.86351318 62.068479 39.76096191 61.91161621 38.625 61.75 C37.47539795 61.58089111 36.3257959 61.41178223 35.14135742 61.23754883 C16.94806617 58.80809753 -1.42176557 59.70748546 -19.70019531 60.64111328 C-29.79858512 61.14369101 -39.89199571 61.09694854 -50 61 C-50 60.67 -50 60.34 -50 60 C-45.545 59.505 -45.545 59.505 -41 59 C-41.84416032 55.32227425 -41.84416032 55.32227425 -42.6875 53.125 C-43.15426447 49.95100162 -42.34028415 47.87203747 -41 45 C-38.875 44.125 -38.875 44.125 -37 44 C-38.32 46.31 -39.64 48.62 -41 51 C-39.72125 50.979375 -38.4425 50.95875 -37.125 50.9375 C-33.96059528 50.88646121 -30.91596703 51.11723918 -27.77929688 51.48632812 C-20.72860776 52.20186974 -13.66549713 52.23186858 -6.5859375 52.31640625 C-5.12048827 52.33702403 -3.65504434 52.35802158 -2.18960571 52.37937927 C1.63413146 52.43410267 5.45791777 52.48372737 9.28173828 52.53222656 C13.19698364 52.58280902 17.11215922 52.63830163 21.02734375 52.69335938 C28.68483645 52.8003309 36.34238788 52.90190658 44 53 C42.56214835 51.23998974 41.12392579 49.4802825 39.68554688 47.72070312 C38.88467651 46.74073364 38.08380615 45.76076416 37.25866699 44.75109863 C34.70368984 41.63908868 32.11238926 38.56391333 29.5 35.5 C26.14463665 31.55427075 22.82775957 27.58355203 19.5625 23.5625 C15.48864585 18.55305909 11.29907905 13.65036955 7.07250977 8.76977539 C4.60776277 5.91557791 2.21041509 3.05999639 0 0 Z M37 57 C37 57.99 37 58.98 37 60 C37.99 60 38.98 60 40 60 C39.67 59.01 39.34 58.02 39 57 C38.34 57 37.68 57 37 57 Z " fill="#FAF6F8" transform="translate(214,22)"/>
<path d="M0 0 C3.70016395 1.23338798 4.54703034 2.63820444 6.9375 5.6875 C10.54078891 10.2047939 14.22111886 14.6286824 18 19 C22.3094448 23.99993078 26.53393658 29.05662754 30.6875 34.1875 C32.43632465 36.31444889 34.20388293 38.41360138 36 40.5 C36.50845459 41.09224365 37.01690918 41.6844873 37.54077148 42.29467773 C38.53873253 43.45402891 39.54072213 44.60992711 40.54711914 45.76196289 C44 49.77888232 44 49.77888232 44 52 C35.65374374 52.04671145 27.30754374 52.08206354 18.96118832 52.10362434 C15.08402263 52.11398181 11.20694755 52.12799048 7.32983398 52.15087891 C3.5756042 52.17289862 -0.17853944 52.18462872 -3.9328289 52.18975449 C-5.35227244 52.19339879 -6.77171225 52.20051173 -8.19111824 52.21146011 C-17.97089067 52.28377021 -27.34881286 51.52676164 -37 50 C-37 49.67 -37 49.34 -37 49 C-20.64315894 47.71924776 -4.4137384 46.6560567 12 47 C8.36721512 31.23003062 4.28046063 15.60596201 0 0 Z " fill="#236CB2" transform="translate(214,23)"/>
<path d="M0 0 C0 0.33 0 0.66 0 1 C-8.64935708 1.02318891 -17.29870343 1.04094848 -25.94808483 1.05181217 C-29.96450589 1.05702667 -33.98090565 1.06409828 -37.99731445 1.07543945 C-41.87468487 1.08631928 -45.75203482 1.09228764 -49.62941933 1.09487724 C-51.10735712 1.09672231 -52.58529382 1.10032524 -54.06322289 1.10573006 C-56.13616719 1.11300812 -58.20902736 1.11398809 -60.28198242 1.11352539 C-62.05069954 1.11685631 -62.05069954 1.11685631 -63.85514832 1.12025452 C-66.69573261 1.01163474 -69.2401471 0.65397276 -72 0 C-72 -0.33 -72 -0.66 -72 -1 C-18.88852851 -5.39672243 -18.88852851 -5.39672243 0 0 Z " fill="#144D84" transform="translate(249,73)"/>
<path d="M0 0 C0.66 0.33 1.32 0.66 2 1 C1.154375 1.96679688 0.30875 2.93359375 -0.5625 3.9296875 C-6.15735134 10.34434571 -11.69169544 16.7732318 -16.96484375 23.45703125 C-19.49262468 26.61554447 -22.08093239 29.71888605 -24.6875 32.8125 C-25.13947754 33.35213379 -25.59145508 33.89176758 -26.05712891 34.44775391 C-28.89654137 37.80437114 -31.85562117 40.93493883 -35 44 C-34.38998481 40.6672341 -33.20748126 38.65231445 -31.125 36 C-30.61195313 35.34 -30.09890625 34.68 -29.5703125 34 C-28.52233345 32.66526052 -27.45434404 31.34599608 -26.3671875 30.04296875 C-24.423513 27.13856371 -24.15933826 24.32662161 -23.625 20.92578125 C-23.41875 20.29027344 -23.2125 19.65476562 -23 19 C-22.01 18.67 -21.02 18.34 -20 18 C-19.71125 17.236875 -19.4225 16.47375 -19.125 15.6875 C-17.68252798 12.24159461 -16.09611323 11.06407549 -13 9 C-11.865625 8.54625 -10.73125 8.0925 -9.5625 7.625 C-5.27334878 5.66854506 -3.15158472 3.4590564 0 0 Z " fill="#FDF4F6" transform="translate(162,83)"/>
<path d="M0 0 C0.33 0.66 0.66 1.32 1 2 C2.24523437 1.98259766 2.24523437 1.98259766 3.515625 1.96484375 C17.35641474 1.86349906 31.17211871 2.45201482 45 3 C40.47962309 6.01358461 35.5248615 6.55002822 30.25 7.625 C29.1775 7.85445312 28.105 8.08390625 27 8.3203125 C21.56846377 9.44407862 16.54779761 10.30116616 11 10 C11.33 9.34 11.66 8.68 12 8 C14.5625 7.375 14.5625 7.375 17 7 C15.94039062 7.01160156 14.88078125 7.02320313 13.7890625 7.03515625 C12.40104342 7.04453476 11.01302245 7.05363489 9.625 7.0625 C8.92632812 7.07087891 8.22765625 7.07925781 7.5078125 7.08789062 C2.2265625 7.11328125 2.2265625 7.11328125 0 6 C0 4.02 0 2.04 0 0 Z " fill="#E7F3FA" transform="translate(64,201)"/>
<path d="M0 0 C4.69886855 0.44672342 6.47215167 2.09606409 9.5 5.625 C10.66208984 6.97851562 10.66208984 6.97851562 11.84765625 8.359375 C15.38909323 12.70422327 18.48736368 16.97472736 21 22 C21.45503906 22.45503906 21.91007812 22.91007812 22.37890625 23.37890625 C24.05128751 25.05128751 25.41089906 26.78394831 26.8125 28.6875 C27.33070313 29.38617188 27.84890625 30.08484375 28.3828125 30.8046875 C29.4609375 32.26822917 30.5390625 33.73177083 31.6171875 35.1953125 C32.13539063 35.89398438 32.65359375 36.59265625 33.1875 37.3125 C33.65542969 37.94800781 34.12335938 38.58351562 34.60546875 39.23828125 C35.95109945 41.05557281 35.95109945 41.05557281 37.73828125 42.48046875 C38.15464844 42.98191406 38.57101562 43.48335937 39 44 C38.57885742 46.0949707 38.57885742 46.0949707 38 48 C23.90145191 30.93552632 23.90145191 30.93552632 18.140625 23.671875 C16.35289343 21.44047282 14.54869866 19.22535177 12.734375 17.015625 C12.15051025 16.302854 11.56664551 15.59008301 10.96508789 14.85571289 C9.80546589 13.44126391 8.64330825 12.02888884 7.47827148 10.61889648 C4.68662488 7.20903056 2.13625104 3.87523434 0 0 Z " fill="#FAEDF0" transform="translate(264,85)"/>
<path d="M0 0 C44.88 0 89.76 0 136 0 C136 0.33 136 0.66 136 1 C91.45 1 46.9 1 1 1 C0.67 1.99 0.34 2.98 0 4 C-0.66 4 -1.32 4 -2 4 C-1.34 2.68 -0.68 1.36 0 0 Z " fill="#7BA1C5" transform="translate(109,147)"/>
<path d="M0 0 C2.475 0.495 2.475 0.495 5 1 C5.33 1.99 5.66 2.98 6 4 C6.66 4 7.32 4 8 4 C9.33619621 5.65770921 10.59462139 7.37852016 11.8125 9.125 C16.79130347 16.22863075 16.79130347 16.22863075 22.6875 22.5625 C24 24 24 24 24.9375 26.5625 C26.24474015 29.56146271 27.16259496 29.59557476 30 31 C32.15480678 33.13276454 33.95280435 35.54577179 35.8125 37.9375 C36.32748047 38.57107422 36.84246094 39.20464844 37.37304688 39.85742188 C38.66878517 41.50701641 39.84461753 43.24923125 41 45 C40.67 45.99 40.34 46.98 40 48 C34.03991232 40.99271935 28.12541576 33.95705235 22.3203125 26.8203125 C19.70571372 23.64229849 17.04366273 20.50758062 14.375 17.375 C10.57190293 12.90940671 6.88662709 8.38115404 3.33984375 3.70703125 C1.96468693 1.88492219 1.96468693 1.88492219 0 0 Z " fill="#E7F5FB" transform="translate(214,22)"/>
<path d="M0 0 C9.0056185 -0.20893595 18.01039766 -0.3686432 27.01791477 -0.46630955 C31.201049 -0.51319667 35.38252024 -0.57673614 39.56469727 -0.67895508 C43.60433597 -0.77706725 47.64238031 -0.83062139 51.68311882 -0.85389519 C53.22105956 -0.87046953 54.75891714 -0.90283988 56.296175 -0.95157051 C68.37326087 -1.31902986 68.37326087 -1.31902986 72.54489136 2.06350708 C74.30337062 4.3046437 75.72798271 6.45586526 77 9 C76.01 9 75.02 9 74 9 C69 3.65116279 69 3.65116279 69 1 C46.23 1.33 23.46 1.66 0 2 C0 1.34 0 0.68 0 0 Z " fill="#366FA4" transform="translate(245,147)"/>
<path d="M0 0 C0 0.33 0 0.66 0 1 C-2.31 1.33 -4.62 1.66 -7 2 C-7.226875 2.928125 -7.45375 3.85625 -7.6875 4.8125 C-9.26273536 8.63807159 -10.43818264 9.09484188 -14 11 C-14.845625 11.845625 -15.69125 12.69125 -16.5625 13.5625 C-18.70847194 15.70847194 -20.23289641 16.8726615 -23 18 C-21.52625145 13.02609866 -18.63359436 10.24647759 -15 6.75 C-14.4534375 6.20859375 -13.906875 5.6671875 -13.34375 5.109375 C-8.58387584 0.44283171 -6.64899869 -0.12312961 0 0 Z " fill="#A0C0DD" transform="translate(65,213)"/>
<path d="M0 0 C7.65606218 -0.19355213 14.66258031 -0.3479743 22 2 C22 2.33 22 2.66 22 3 C14.74 3 7.48 3 0 3 C0 2.01 0 1.02 0 0 Z " fill="#0E508F" transform="translate(220,70)"/>
<path d="M0 0 C3.56720996 2.67540747 6.41126424 5.35659412 9 9 C9 9.66 9 10.32 9 11 C6.36 11 3.72 11 1 11 C0.67 9.35 0.34 7.7 0 6 C0.66 6 1.32 6 2 6 C1.34 4.02 0.68 2.04 0 0 Z " fill="#2468AB" transform="translate(248,63)"/>
<path d="M0 0 C0 0.33 0 0.66 0 1 C-1.69769531 1.14695312 -1.69769531 1.14695312 -3.4296875 1.296875 C-4.91155778 1.44693781 -6.39332376 1.59803321 -7.875 1.75 C-8.62136719 1.811875 -9.36773437 1.87375 -10.13671875 1.9375 C-12.57755516 2.16023862 -12.57755516 2.16023862 -16 3 C-17.44763579 4.83222706 -17.44763579 4.83222706 -18 7 C-20.5 9.75 -20.5 9.75 -23 12 C-23.66 12 -24.32 12 -25 12 C-19.01088944 -0.42600508 -12.91973624 -1.1167119 0 0 Z " fill="#DA5067" transform="translate(180,83)"/>
<path d="M0 0 C1 3 1 3 1 6 C-1.35936372 8.15713254 -3.72982608 9.84464999 -6.5 11.4375 C-9.43930264 13.27456415 -11.62516796 15.48946327 -14 18 C-11.87145491 10.9758012 -6.13375081 5.98707221 -1 1 C-0.67 0.67 -0.34 0.34 0 0 Z " fill="#AAC7E2" transform="translate(191,48)"/>
<path d="M0 0 C-0.99 0.66 -1.98 1.32 -3 2 C-2.67 2.66 -2.34 3.32 -2 4 C-8.6 3.67 -15.2 3.34 -22 3 C-22 2.67 -22 2.34 -22 2 C-7.40318907 -0.29612756 -7.40318907 -0.29612756 0 0 Z " fill="#D2EBF7" transform="translate(328,201)"/>
<path d="M0 0 C0.66 0.33 1.32 0.66 2 1 C0.2703384 5.20953787 -2.68206745 8.35143576 -5.625 11.75 C-6.140625 12.35199219 -6.65625 12.95398438 -7.1875 13.57421875 C-8.45469135 15.05260866 -9.72685775 16.52673171 -11 18 C-11.33 17.01 -11.66 16.02 -12 15 C-10.92578125 13.38671875 -10.92578125 13.38671875 -9.3125 11.6875 C-7.21830925 9.40381171 -5.38920319 7.19270436 -3.75 4.5625 C-2.88375 3.2940625 -2.88375 3.2940625 -2 2 C-1.34 2 -0.68 2 0 2 C0 1.34 0 0.68 0 0 Z " fill="#FDE8EC" transform="translate(139,109)"/>
<path d="M0 0 C2.79224073 -0.08071788 5.58216566 -0.14035408 8.375 -0.1875 C9.1690625 -0.21263672 9.963125 -0.23777344 10.78125 -0.26367188 C12.85586148 -0.29004405 14.93100865 -0.15486462 17 0 C17.66 0.99 18.32 1.98 19 3 C13.06 2.67 7.12 2.34 1 2 C0.67 1.34 0.34 0.68 0 0 Z " fill="#FBFDFB" transform="translate(115,279)"/>
<path d="M0 0 C3.9252025 3.70090521 6.94580156 7.54959656 10 12 C7.36 12.33 4.72 12.66 2 13 C2.33 12.01 2.66 11.02 3 10 C3.66 10 4.32 10 5 10 C3.98839152 5.60685207 3.98839152 5.60685207 0.875 2.625 C0.25625 2.41875 -0.3625 2.2125 -1 2 C-0.67 1.34 -0.34 0.68 0 0 Z " fill="#2E6BA7" transform="translate(344,185)"/>
<path d="M0 0 C0.33 0 0.66 0 1 0 C1 1.65 1 3.3 1 5 C0.01 5.33 -0.98 5.66 -2 6 C-3.33827304 7.66270287 -4.67189785 9.32916181 -6 11 C-6.66 11 -7.32 11 -8 11 C-8 11.66 -8 12.32 -8 13 C-8.99 12.67 -9.98 12.34 -11 12 C-9.625 10 -9.625 10 -8 8 C-7.34 8 -6.68 8 -6 8 C-5.731875 7.360625 -5.46375 6.72125 -5.1875 6.0625 C-4 4 -4 4 -1 3 C-0.67 2.01 -0.34 1.02 0 0 Z " fill="#7CA4CE" transform="translate(213,23)"/>
<path d="M0 0 C0 0.33 0 0.66 0 1 C-1.65 1.33 -3.3 1.66 -5 2 C-5 2.99 -5 3.98 -5 5 C-8.96 5 -12.92 5 -17 5 C-15 3 -15 3 -12.375 2.875 C-11.59125 2.91625 -10.8075 2.9575 -10 3 C-10 2.34 -10 1.68 -10 1 C-6.61981469 -0.04005702 -3.5219721 -0.08004482 0 0 Z " fill="#658BAE" transform="translate(75,211)"/>
<path d="M0 0 C-5.01908031 3.65024022 -8.89448262 3.49034485 -14.89453125 2.54296875 C-17.60354679 2.05958857 -20.30302804 1.54622217 -23 1 C-23 0.67 -23 0.34 -23 0 C-21.79601562 0.01160156 -20.59203125 0.02320313 -19.3515625 0.03515625 C-17.77604321 0.04453434 -16.20052225 0.05363452 -14.625 0.0625 C-13.43390625 0.07506836 -13.43390625 0.07506836 -12.21875 0.08789062 C-7.7337279 0.10689496 -4.21089624 -1.26326887 0 0 Z " fill="#E1F0F9" transform="translate(288,291)"/>
<path d="M0 0 C4.87072783 4.56630734 8.89156398 9.74976539 13 15 C12.01 15.33 11.02 15.66 10 16 C8.3372974 13.32521756 7.00016187 11.0004856 6 8 C4.7625 7.5978125 4.7625 7.5978125 3.5 7.1875 C2.675 6.795625 1.85 6.40375 1 6 C0.1875 2.875 0.1875 2.875 0 0 Z " fill="#2D6DA8" transform="translate(381,230)"/>
<path d="M0 0 C0.33 0.66 0.66 1.32 1 2 C-1.44742233 7.47756426 -3.53571754 11.26785877 -9 14 C-9.66 13.67 -10.32 13.34 -11 13 C-10.06027344 11.96939453 -10.06027344 11.96939453 -9.1015625 10.91796875 C-8.28429687 10.01691406 -7.46703125 9.11585938 -6.625 8.1875 C-5.81289062 7.29417969 -5.00078125 6.40085937 -4.1640625 5.48046875 C-1.90927093 3.00367326 -1.90927093 3.00367326 0 0 Z " fill="#DC4C61" transform="translate(132,121)"/>
<path d="M0 0 C2.41793672 0.5467026 4.65373175 0.63990541 7.125 0.48046875 C7.125 1.14046875 7.125 1.80046875 7.125 2.48046875 C8.115 2.81046875 9.105 3.14046875 10.125 3.48046875 C7.2288504 3.17070405 4.33310424 2.85775687 1.4375 2.54296875 C0.62087891 2.45595703 -0.19574219 2.36894531 -1.03710938 2.27929688 C-5.02950219 1.84288147 -8.95152852 1.36744499 -12.875 0.48046875 C-12.875 0.15046875 -12.875 -0.17953125 -12.875 -0.51953125 C-8.08262916 -1.74834429 -4.67176167 -1.17583191 0 0 Z " fill="#F2CFD4" transform="translate(250.875,81.51953125)"/>
<path d="M0 0 C0.99 0 1.98 0 3 0 C5.19140625 2.265625 5.19140625 2.265625 7.5625 5.25 C8.34753906 6.22453125 9.13257813 7.1990625 9.94140625 8.203125 C11.59231117 10.44610018 12.88371838 12.46573903 14 15 C10.25061108 13.75020369 9.36385656 12.18296974 7 9.0625 C4.72566111 6.06881528 3.14818138 4.09878759 0 2 C0 1.34 0 0.68 0 0 Z " fill="#326DA7" transform="translate(225,37)"/>
<path d="M0 0 C3.78080393 1.26026798 4.77295425 2.93546534 7.1875 6.0625 C7.90292969 6.98160156 8.61835938 7.90070312 9.35546875 8.84765625 C10.16951172 9.91306641 10.16951172 9.91306641 11 11 C10.01 11 9.02 11 8 11 C6.3125 9 6.3125 9 5 7 C4.34 7.66 3.68 8.32 3 9 C2.01 6.03 1.02 3.06 0 0 Z " fill="#2E6CA6" transform="translate(214,23)"/>
<path d="M0 0 C2.475 0.495 2.475 0.495 5 1 C5.33 1.99 5.66 2.98 6 4 C6.66 4 7.32 4 8 4 C9.6875 6.3125 9.6875 6.3125 11 9 C10.67 9.99 10.34 10.98 10 12 C9.16855469 10.95199219 9.16855469 10.95199219 8.3203125 9.8828125 C7.59585938 8.97273438 6.87140625 8.06265625 6.125 7.125 C5.40570313 6.22007813 4.68640625 5.31515625 3.9453125 4.3828125 C2.06439526 1.99734824 2.06439526 1.99734824 0 0 Z " fill="#DBF1F9" transform="translate(214,22)"/>
<path d="M0 0 C0.66 0.33 1.32 0.66 2 1 C0.64178106 5.88958819 -1.6978692 7.4904237 -6 10 C-6.99 10.495 -6.99 10.495 -8 11 C-7.1875 8.5625 -7.1875 8.5625 -6 6 C-5.01 5.67 -4.02 5.34 -3 5 C-1.8499169 3.03327085 -1.8499169 3.03327085 -1 1 C-0.67 0.67 -0.34 0.34 0 0 Z " fill="#C3D9EB" transform="translate(40,231)"/>
<path d="M0 0 C0 0.99 0 1.98 0 3 C-0.66 3.66 -1.32 4.32 -2 5 C-2.4021875 6.2065625 -2.4021875 6.2065625 -2.8125 7.4375 C-4.28960796 10.62494348 -5.91275861 11.45637931 -9 13 C-8.34 11.35 -7.68 9.7 -7 8 C-6.34 8 -5.68 8 -5 8 C-4.9175 7.4225 -4.835 6.845 -4.75 6.25 C-3.79468987 3.3840696 -2.21530827 2.0009236 0 0 Z " fill="#B6D1E8" transform="translate(87,173)"/>
<path d="M0 0 C2.72574271 0.37330824 3.80822085 0.79194601 5.703125 2.84765625 C6.21359375 3.57855469 6.7240625 4.30945313 7.25 5.0625 C8.03117187 6.16271484 8.03117187 6.16271484 8.828125 7.28515625 C9.21484375 7.85105469 9.6015625 8.41695312 10 9 C9.34 9.66 8.68 10.32 8 11 C6.66375099 9.35653302 5.33107149 7.71016314 4 6.0625 C3.2575 5.14597656 2.515 4.22945312 1.75 3.28515625 C0 1 0 1 0 0 Z " fill="#DFF2FA" transform="translate(331,168)"/>
<path d="M0 0 C0.33 0.99 0.66 1.98 1 3 C-4.94 3.495 -4.94 3.495 -11 4 C-6.98844558 -0.01155442 -5.52552982 -0.12012021 0 0 Z " fill="#FBFDFB" transform="translate(294,290)"/>
<path d="M0 0 C2.93200474 2.85276137 5.64315404 5.65079784 8 9 C7.01 9.33 6.02 9.66 5 10 C5 9.01 5 8.02 5 7 C3.35 6.67 1.7 6.34 0 6 C0 4.02 0 2.04 0 0 Z " fill="#296EB0" transform="translate(323,159)"/>
<path d="M0 0 C1.32 0 2.64 0 4 0 C4.33 0.99 4.66 1.98 5 3 C3.22555028 5.24606427 2.41647515 5.95081002 -0.48046875 6.29296875 C-1.82044922 6.24076172 -1.82044922 6.24076172 -3.1875 6.1875 C-4.53908203 6.14689453 -4.53908203 6.14689453 -5.91796875 6.10546875 C-6.60503906 6.07066406 -7.29210937 6.03585938 -8 6 C-8 5.67 -8 5.34 -8 5 C-4.7 4.34 -1.4 3.68 2 3 C1.34 2.01 0.68 1.02 0 0 Z " fill="#CAE5F3" transform="translate(351,193)"/>
<path d="M0 0 C0.66 0.33 1.32 0.66 2 1 C2 1.66 2 2.32 2 3 C1.34 3.639375 0.68 4.27875 0 4.9375 C-2.34807292 6.88012332 -2.34807292 6.88012332 -2 10 C-3.32 10 -4.64 10 -6 10 C-4.6302836 6.00499382 -2.74277578 3.19990508 0 0 Z " fill="#789CC3" transform="translate(179,63)"/>
<path d="M0 0 C4.62 0 9.24 0 14 0 C14 0.99 14 1.98 14 3 C12.02 3 10.04 3 8 3 C8 2.67 8 2.34 8 2 C5.36 1.67 2.72 1.34 0 1 C0 0.67 0 0.34 0 0 Z " fill="#1E5B98" transform="translate(206,70)"/>
<path d="M0 0 C0 3.69418201 -1.28179295 5.77836178 -3 9 C-3.99 8.01 -4.98 7.02 -6 6 C-4.02 4.02 -2.04 2.04 0 0 Z " fill="#729AC6" transform="translate(36,238)"/>
<path d="M0 0 C-0.33 0.99 -0.66 1.98 -1 3 C-2.670625 3.2165625 -2.670625 3.2165625 -4.375 3.4375 C-7.82142047 3.78372035 -7.82142047 3.78372035 -10 5 C-10.66 4.34 -11.32 3.68 -12 3 C-10.37604003 2.49663233 -8.75079459 1.99741024 -7.125 1.5 C-6.22007812 1.2215625 -5.31515625 0.943125 -4.3828125 0.65625 C-2 0 -2 0 0 0 Z " fill="#D0E6F5" transform="translate(364,267)"/>
<path d="M0 0 C0.66 0 1.32 0 2 0 C1.875 1.75 1.875 1.75 1 4 C-2.0625 6.25 -2.0625 6.25 -5 8 C-3.63055898 5.05043472 -2.12169591 2.47531189 0 0 Z " fill="#BBD4EA" transform="translate(70,193)"/>
<path d="M0 0 C0.33 0.99 0.66 1.98 1 3 C0 5 0 5 -3.0625 6.125 C-4.031875 6.41375 -5.00125 6.7025 -6 7 C-4.02 4.69 -2.04 2.38 0 0 Z " fill="#7199C6" transform="translate(16,261)"/>
<path d="M0 0 C0.33 0.99 0.66 1.98 1 3 C-0.98 3.99 -0.98 3.99 -3 5 C-3 5.66 -3 6.32 -3 7 C-3.66 6.67 -4.32 6.34 -5 6 C-2.25 1.125 -2.25 1.125 0 0 Z " fill="#A2BDDB" transform="translate(77,186)"/>
<path d="M0 0 C0.66 0.33 1.32 0.66 2 1 C2 2.98 2 4.96 2 7 C0.68 7 -0.64 7 -2 7 C-2 6.34 -2 5.68 -2 5 C-1.34 5 -0.68 5 0 5 C0 3.35 0 1.7 0 0 Z " fill="#5A96D2" transform="translate(224,63)"/>
</svg>
